<svg xmlns="http://www.w3.org/2000/svg" viewBox="0 0 274.61 275.42"><defs><style>.cls-1{fill:#f7941d;}.cls-2{fill:#fff;}</style></defs><g id="Layer_2" data-name="Layer 2"><g id="Layer_1-2" data-name="Layer 1"><path class="cls-1" d="M80.78,167a153.18,153.18,0,0,1-18.33,5.54c-6.2,1.5-12.45,2.72-18.74,3.7s-12.62,1.7-19,2.14a147.36,147.36,0,0,1-19.15.22c6.2-1.68,12.43-2.92,18.65-4.12S36.7,172.29,43,171.33s12.51-1.85,18.8-2.61S74.36,167.29,80.78,167Z"/><path class="cls-1" d="M238.6,135.61a35.87,35.87,0,0,1,13.52-5.22,20.88,20.88,0,0,1,7.74.22,15,15,0,0,1,7.22,3.9,12,12,0,0,1,2.54,3.61,9.39,9.39,0,0,1,.73,4.62,10.87,10.87,0,0,1-1.36,4.15,16.39,16.39,0,0,1-2.35,3.21,27,27,0,0,1-5.79,4.64,35.05,35.05,0,0,1-6.51,3.12c3.37-3.39,6.82-6.62,9.23-10.21a10.55,10.55,0,0,0,2.05-5.27,4.86,4.86,0,0,0-.5-2.23,7.36,7.36,0,0,0-1.55-2.08c-2.66-2.71-6.76-3.74-11.17-3.77S243.37,135,238.6,135.61Z"/><path class="cls-1" d="M0,169.23a129.82,129.82,0,0,0,21.1,2.05A155.92,155.92,0,0,0,42,170c7-.85,13.91-2.05,20.89-3.32s14-2.62,21.15-3.5a168.18,168.18,0,0,1-20.25,7.33A134.18,134.18,0,0,1,42.63,175a91.8,91.8,0,0,1-21.79.21A63.59,63.59,0,0,1,0,169.23Z"/><path class="cls-2" d="M172.47,135v4.75h-2.69c-.45-.91-1-1.79-1.46-2.62l-.54-.89C169.33,135.87,170.89,135.46,172.47,135Z"/><path class="cls-2" d="M129,136.45l-.43.71c-.5.83-1,1.71-1.46,2.62h-1.61v-4.24Z"/><path class="cls-2" d="M138.82,126c0,.14.06.28.08.42a14.82,14.82,0,0,0-6.45,4.95c-2.3-.66-4.63-1.29-7-1.91V103.59c.47.47.92.93,1.36,1.4a51.91,51.91,0,0,1,7.31,9.53,47.77,47.77,0,0,1,4,9l.15.45a19.41,19.41,0,0,1,.53,2Z"/><path class="cls-2" d="M172.47,49.4v47l-.87.77-.46.42a73.9,73.9,0,0,0-7.32,7.42,51,51,0,0,0-5.39,7.54,52.91,52.91,0,0,0-4.52,10.26c-.22.7-.44,1.52-.64,2.44-.49.11-1,.21-1.51.29.27-6.79.34-13.68.2-20.53,0-1,0-1.91-.05-2.86A350,350,0,0,0,149.1,66.6l-1-7.58-1,7.58a349.93,349.93,0,0,0-2.8,35.53c0,1-.05,1.9-.06,2.86-.14,6.77-.07,13.65.21,20.54a17.14,17.14,0,0,1-1.73-.36c-.19-.89-.41-1.69-.62-2.38a53.27,53.27,0,0,0-4.52-10.27,52.07,52.07,0,0,0-5.38-7.53,74.08,74.08,0,0,0-6.76-6.91V49.4Z"/><path class="cls-2" d="M172.47,101.77V129q-4.18,1.08-8.22,2.22a14.08,14.08,0,0,0-7.09-5l-.13,0,.15-.06c.17-.8.36-1.51.55-2.11,0-.12.07-.23.12-.35a47.66,47.66,0,0,1,4.05-9.13,51.91,51.91,0,0,1,7.31-9.53C170.24,103.9,171.33,102.82,172.47,101.77Z"/><path class="cls-1" d="M129.55,153.66a42.37,42.37,0,0,1,2.21,5.33,53.08,53.08,0,0,0-6.76,5.59,45.84,45.84,0,0,0-3.21,3.5c-10.3,4.66-19.74,9.51-28.3,14.34,7.3-1.92,15-4.19,23-6.87-1,1.65-2,3.37-2.9,5.18l-.27.54a86,86,0,0,0-6,14.1,55.62,55.62,0,0,0-2.51,20.74c.07.94.16,2,.27,3.13A46.11,46.11,0,0,1,95.26,221c-10,.56-16.68-2.49-24.45-6-6.57-3-14-6.36-24.56-7.88a77.39,77.39,0,0,0-11-.8h-.61a77.5,77.5,0,0,0,7.82-8.69c6.52-8.43,9.51-16,12.15-22.75C56.88,168.93,59,163.62,63,158.6a36,36,0,0,1,2.79-3.1c.66-.67,1.38-1.33,2.14-2a42,42,0,0,1,6-4.3c1.7-1,3.59-2,5.75-3.1,13.43-6.6,26-5.54,33.57-4.91l.62.05a69.61,69.61,0,0,1,9.77,1.46c.72.16,1.43.33,2.12.52a7.47,7.47,0,0,0,.26,5,10.67,10.67,0,0,0,1.34,2.12c.32.42.65.83,1,1.26A16.74,16.74,0,0,1,129.55,153.66Z"/><path class="cls-1" d="M138.82,126c0,.14.06.28.08.42a14.82,14.82,0,0,0-6.45,4.95c-2.3-.66-4.63-1.29-7-1.91q-4.14-1.09-8.43-2.11a359.78,359.78,0,0,0-35.47-6.49,355.94,355.94,0,0,0,34,11.91q5,1.49,9.86,2.75l3.5.91-.43.71c-.5.83-1,1.71-1.46,2.62-.1.2-.2.41-.29.61a71.09,71.09,0,0,0-12.66-2.13l-.62,0c-7.84-.66-21-1.75-35.14,5.21-1.61.79-3.08,1.56-4.43,2.32a47.79,47.79,0,0,0-8,5.5,41,41,0,0,0-3,2.85c-1-.56-2-1.13-2.87-1.73-8.22-5.48-11.72-11.88-15.78-19.31-3.48-6.36-7.42-13.57-15-21.17A77.65,77.65,0,0,0,21.41,105a77.85,77.85,0,0,0,10.31-2.11c10.35-2.85,17.34-7.16,23.51-11,7.2-4.43,13.42-8.27,23.28-9A52.47,52.47,0,0,1,92.21,84a52.13,52.13,0,0,1,18.37,7.36c1,.67,2,1.35,3,2a98.58,98.58,0,0,1,8.18,6.71l.47.42c1.12,1,2.19,2,3.22,3,.47.47.92.93,1.36,1.4a51.91,51.91,0,0,1,7.31,9.53,47.77,47.77,0,0,1,4,9l.15.45a19.41,19.41,0,0,1,.53,2Z"/><path class="cls-1" d="M186.37,86.19h0l-1.27.73a79.69,79.69,0,0,0-12.62,9.46l-.87.77-.46.42a73.9,73.9,0,0,0-7.32,7.42,51,51,0,0,0-5.39,7.54,52.91,52.91,0,0,0-4.52,10.26c-.22.7-.44,1.52-.64,2.44-.49.11-1,.21-1.51.29.27-6.79.34-13.68.2-20.53,0-1,0-1.91-.05-2.86A350,350,0,0,0,149.1,66.6l-1-7.58-1,7.58a349.93,349.93,0,0,0-2.8,35.53c0,1-.05,1.9-.06,2.86-.14,6.77-.07,13.65.21,20.54a17.14,17.14,0,0,1-1.73-.36c-.19-.89-.41-1.69-.62-2.38a53.27,53.27,0,0,0-4.52-10.27,52.07,52.07,0,0,0-5.38-7.53,74.08,74.08,0,0,0-6.76-6.91l-.57-.51-.46-.42a84.1,84.1,0,0,0-13.24-10.08l-1.26-.74h0a52.34,52.34,0,0,1-2.13-18.89,54.42,54.42,0,0,1,2.52-13.83c6.18-17.86,19.93-20.5,31.41-39.9A74.45,74.45,0,0,0,148,0h.15a73.78,73.78,0,0,0,6.33,13.71c11.48,19.4,25.23,22,31.4,39.9a54,54,0,0,1,2.53,13.83A52.35,52.35,0,0,1,186.37,86.19Z"/><path class="cls-1" d="M274.61,105a78.73,78.73,0,0,0-7.92,6.93c-7.58,7.6-11.52,14.81-15,21.17-3.79,6.94-7.09,13-14.2,18.2-.41.31-.84.61-1.28.91-.73-.63-1.48-1.22-2.25-1.78-.2-.16-.41-.31-.61-.44a5.62,5.62,0,0,0-.5-.35l-.13-.09-.19-.13c-.16-.12-.33-.23-.49-.33a4.66,4.66,0,0,0-.47-.3c-.28-.19-.57-.37-.86-.55s-.56-.35-.85-.51l-.73-.43c-.83-.49-1.68-.95-2.53-1.39s-1.44-.74-2.17-1.1c-14.19-7-27.54-5.62-35-5q-1,.08-1.92.18l-1,.11-1.72.22-.85.13-.82.13c-.93.15-1.81.32-2.64.49l-1.33.29-1.23.3c-.58.14-1.12.29-1.63.43l-.8.24-.75.23-.29.1-.27.09-.57.19-.51.18c-.53.18-1,.36-1.35.51l-.26.1-.16.07-.07,0-.08,0a12.53,12.53,0,0,0-.38-1.46,18.44,18.44,0,0,0-1.08-2.57c-.45-.91-1-1.79-1.46-2.62l-.54-.89c1.55-.4,3.11-.81,4.69-1.24q3.93-1,8-2.24a356.67,356.67,0,0,0,34-11.91A359.78,359.78,0,0,0,179,127.37q-3.31.78-6.53,1.61-4.18,1.08-8.22,2.22a14.08,14.08,0,0,0-7.09-5l-.13,0,.15-.06c.17-.8.36-1.51.55-2.11,0-.12.07-.23.12-.35a47.66,47.66,0,0,1,4.05-9.13,51.91,51.91,0,0,1,7.31-9.53c1-1.09,2.12-2.17,3.26-3.22.43-.41.87-.81,1.32-1.21l.47-.42a94.89,94.89,0,0,1,8.46-6.91c.94-.67,1.94-1.33,3-2a56.26,56.26,0,0,1,31.82-8.32c9.85.68,16.07,4.52,23.27,9,6.17,3.81,13.16,8.12,23.5,11A78.33,78.33,0,0,0,274.61,105Z"/><path class="cls-1" d="M142.81,192.56c-.62.89-1.31,1.83-2.07,2.81s-1.8,2.24-2.84,3.43c-4.71,5.38-12.88,15-26.84,20.12-.06-.5-.11-1-.15-1.55s-.1-1.12-.14-1.7a50.13,50.13,0,0,1,2.82-20.3A85.78,85.78,0,0,1,118.65,184l.29-.56a63.68,63.68,0,0,1,7.29-11.33l1.63-.6c2.92-1.09,5.78-2.21,8.59-3.34A14.31,14.31,0,0,0,142,171.8l.21.07c0,3.13,0,6.27.13,9.39.08,2.94.2,5.89.35,8.83Z"/><path class="cls-1" d="M185.31,217.45a47.36,47.36,0,0,1-2.22,11.29c-3.1,9-8.32,13.85-14.35,19.49-5.31,5-11.32,10.6-16.81,19.86a79.67,79.67,0,0,0-3.82,7.33,77.18,77.18,0,0,0-3.82-7.33c-5.48-9.26-11.5-14.89-16.8-19.85-6-5.65-11.25-10.53-14.35-19.5a41.43,41.43,0,0,1-1.89-8.29c-.07-.49-.13-1-.19-1.53s-.11-1-.15-1.55-.1-1.12-.14-1.7a50.13,50.13,0,0,1,2.82-20.3A85.78,85.78,0,0,1,118.65,184l.29-.56a63.68,63.68,0,0,1,7.29-11.33,41.42,41.42,0,0,1,3-3.25,48.09,48.09,0,0,1,4.88-4.16,15.8,15.8,0,0,0,2.21,3.29l.17.18A14.31,14.31,0,0,0,142,171.8l.21.07c0,3.13,0,6.27.13,9.39.08,2.94.2,5.89.35,8.83l.15,2.47c0,.78.1,1.57.14,2.36,0,.15,0,.3,0,.45.49,7.25,1.22,14.48,2.15,21.62l3,22.74,3-22.74c.94-7.18,1.65-14.41,2.14-21.62.27-3.93.48-7.86.6-11.76a56.28,56.28,0,0,0,7,11.76q1.67,2.22,3.59,4.41l.44.5C169,205,175.31,212.25,185.31,217.45Z"/><path class="cls-1" d="M188.46,215.66c-.33-.15-.65-.31-1-.48q-1-.5-2-1c-8.86-4.91-14.63-11.5-18.43-15.85l-.44-.5c-.71-.81-1.39-1.62-2-2.44a56.38,56.38,0,0,1-8.09-13.05,48.17,48.17,0,0,1-2.51-7.8c-.18-.74-.33-1.48-.47-2.22,0,0,0-.05,0-.07l.5-.15c.28-.08.56-.18.83-.28a13.75,13.75,0,0,0,7.11-5.69c.21-.35.42-.7.61-1.06,1.09.83,2.16,1.71,3.18,2.64q2.26.93,4.57,1.83l2,.76A65.9,65.9,0,0,1,180,182.15a90.36,90.36,0,0,1,5.82,13.22A53,53,0,0,1,188.46,215.66Z"/><path class="cls-1" d="M236.21,152.16l-.3.2c-.33.22-.67.43-1,.64a47.63,47.63,0,0,1-8.3,4q-1.48.57-3.15,1.14c-14,4.8-26.28,2.21-33.61.66l-.65-.14a59.51,59.51,0,0,1-17.25-6.25c-.93-.55-1.84-1.13-2.73-1.73a11.87,11.87,0,0,0,1.63-2.49,6.69,6.69,0,0,0,.56-2.83,9.29,9.29,0,0,0-.16-1.57l.08,0,.07,0,.16-.07.26-.1c.37-.15.82-.33,1.35-.51l.51-.18.57-.19.27-.09.29-.1.75-.23.8-.24c.51-.14,1.05-.29,1.63-.43l1.23-.3,1.33-.29c.83-.17,1.71-.34,2.64-.49l.82-.13.85-.13,1.72-.22,1-.11q.93-.1,1.92-.18c7.43-.62,20.78-2,35,5,.73.36,1.45.72,2.17,1.1s1.7.9,2.53,1.39l.73.43c.29.16.57.33.85.51s.58.36.86.55a4.66,4.66,0,0,1,.47.3c.16.1.33.21.49.33l.19.13.13.09a5.62,5.62,0,0,1,.5.35c.2.13.41.28.61.44C234.73,150.94,235.48,151.54,236.21,152.16Z"/><path class="cls-1" d="M268.85,206.28a76.16,76.16,0,0,0-11.66.79c-10.55,1.52-18,4.9-24.56,7.88-7.77,3.53-14.47,6.57-24.45,6a53.49,53.49,0,0,1-13.58-2.87c-1.11-.36-2.19-.75-3.23-1.17-.66-.26-1.31-.54-1.94-.82l-1-.45c-.33-.15-.65-.31-1-.48q-1-.5-2-1c-8.86-4.91-14.63-11.5-18.43-15.85l-.44-.5c-.71-.81-1.39-1.62-2-2.44a56.38,56.38,0,0,1-8.09-13.05,48.17,48.17,0,0,1-2.51-7.8c-.18-.74-.33-1.48-.47-2.22,0,0,0-.05,0-.07l.5-.15c.28-.08.56-.18.83-.28a13.75,13.75,0,0,0,7.11-5.69c1.25.53,2.51,1.06,3.79,1.58q2.26.93,4.57,1.83l2,.76,1.85.7,1.43.54,2,.75c11.37,4.18,22.23,7.5,32.33,10.15a357.63,357.63,0,0,0-32.26-16.1c-2.83-1.23-5.62-2.41-8.39-3.53q-2.46-1-4.88-1.94c.19-.5.37-1,.55-1.5a46.53,46.53,0,0,1,2.11-5.26c.92.62,1.87,1.22,2.83,1.79a61.56,61.56,0,0,0,18.45,6.71l.65.14a81.75,81.75,0,0,0,17.59,2.21,55.49,55.49,0,0,0,18.15-3c.57-.2,1.19-.41,1.85-.66A55.11,55.11,0,0,0,238,155.81c5.75,5.85,8.17,12,10.93,19,2.64,6.72,5.63,14.33,12.15,22.76A77.5,77.5,0,0,0,268.85,206.28Z"/><path class="cls-1" d="M236.21,152.16l-.3.2c-.33.22-.67.43-1,.64a47.63,47.63,0,0,1-8.3,4q-1.48.57-3.15,1.14c-14,4.8-26.28,2.21-33.61.66l-.65-.14a59.51,59.51,0,0,1-17.25-6.25c-.93-.55-1.84-1.13-2.73-1.73a11.87,11.87,0,0,0,1.63-2.49,6.69,6.69,0,0,0,.56-2.83,9.29,9.29,0,0,0-.16-1.57l.08,0,.07,0,.16-.07.26-.1c.37-.15.82-.33,1.35-.51l.51-.18.57-.19.27-.09.29-.1.75-.23.8-.24c.51-.14,1.05-.29,1.63-.43l1.23-.3,1.33-.29c.83-.17,1.71-.34,2.64-.49l.82-.13.85-.13,1.72-.22,1-.11q.93-.1,1.92-.18c7.43-.62,20.78-2,35,5,.73.36,1.45.72,2.17,1.1s1.7.9,2.53,1.39l.73.43c.29.16.57.33.85.51s.58.36.86.55a4.66,4.66,0,0,1,.47.3c.16.1.33.21.49.33l.19.13.13.09a5.62,5.62,0,0,1,.5.35c.2.13.41.28.61.44C234.73,150.94,235.48,151.53,236.21,152.16Z"/><path class="cls-2" d="M157.18,126.11a.29.29,0,0,1,0,.09l-.13,0Z"/></g></g></svg>